<svg xmlns="http://www.w3.org/2000/svg" height="24px" viewBox="0 -960 960 960" width="24px" fill="#e3e3e3"><path d="M720-80q-83 0-141.5-58.5T520-280q0-7 1-14.5t3-14.5L328-422q-29 28-67.5 45T180-360q-83 0-141.5-58.5T-20-560q0-83 58.5-141.5T180-760q83 0 141.5 58.5T380-560q0 7-1 14.5t-3 14.5l196 113q29-28 67.5-45T720-480q83 0 141.5 58.5T920-280q0 83-58.5 141.5T720-80Zm0-80q50 0 85-35t35-85q0-50-35-85t-85-35q-50 0-85 35t-35 85q0 50 35 85t85 35ZM180-520q17 0 28.5-11.5T220-560q0-17-11.5-28.5T180-600q-17 0-28.5 11.5T140-560q0 17 11.5 28.5T180-520Zm0-200q50 0 85-35t35-85q0-50-35-85t-85-35q-50 0-85 35t-35 85q0 50 35 85t85 35Zm0 200Zm540 240Z"/></svg>
